<mxfile modified="2023-03-15T22:13:49.912Z" host="Electron" agent="5.0 (Windows NT 10.0; Win64; x64) AppleWebKit/537.36 (KHTML, like Gecko) draw.io/20.3.0 Chrome/104.0.5112.114 Electron/20.1.3 Safari/537.36" etag="uHDkshBBlXhmWjI0CqwS" compressed="false" version="20.3.0" type="device">
  <diagram id="BayGc8JBj5o5I4HfzpmJ" name="Functionality/Analysis/Comparison of different User &amp; Group Management Capabilities Depending on Platform Choices">
    <mxGraphModel dx="782" dy="517" grid="1" gridSize="10" guides="1" tooltips="1" connect="1" arrows="1" fold="1" page="1" pageScale="1" pageWidth="827" pageHeight="1169" math="0" shadow="0">
      <root>
        <mxCell id="___ZYtuKfzhHM2hxXnuB-0" />
        <mxCell id="___ZYtuKfzhHM2hxXnuB-1" parent="___ZYtuKfzhHM2hxXnuB-0" />
        <mxCell id="___ZYtuKfzhHM2hxXnuB-2" value="Individual Consumer Systems" style="rounded=0;whiteSpace=wrap;html=1;fontSize=11;strokeColor=#666666;" parent="___ZYtuKfzhHM2hxXnuB-1" vertex="1">
          <mxGeometry x="120" y="120" width="80" height="60" as="geometry" />
        </mxCell>
        <mxCell id="___ZYtuKfzhHM2hxXnuB-3" value="Corporate / Enterprise Systems" style="rounded=0;whiteSpace=wrap;html=1;fontSize=11;strokeColor=#666666;" parent="___ZYtuKfzhHM2hxXnuB-1" vertex="1">
          <mxGeometry x="320" y="120" width="80" height="60" as="geometry" />
        </mxCell>
        <mxCell id="___ZYtuKfzhHM2hxXnuB-4" value="SMB Systems" style="rounded=0;whiteSpace=wrap;html=1;fontSize=11;strokeColor=#666666;" parent="___ZYtuKfzhHM2hxXnuB-1" vertex="1">
          <mxGeometry x="220" y="120" width="80" height="60" as="geometry" />
        </mxCell>
        <mxCell id="___ZYtuKfzhHM2hxXnuB-5" value="Federated&amp;nbsp; Franchisee Systems" style="rounded=0;whiteSpace=wrap;html=1;fontSize=11;strokeColor=#666666;fillColor=#f5f5f5;fontColor=#333333;" parent="___ZYtuKfzhHM2hxXnuB-1" vertex="1">
          <mxGeometry x="600" y="120" width="80" height="60" as="geometry" />
        </mxCell>
        <mxCell id="EOhwlegY5U9e9SbTwED8-1" value="Federated&amp;nbsp; Systems" style="rounded=0;whiteSpace=wrap;html=1;fontSize=11;strokeColor=#666666;" parent="___ZYtuKfzhHM2hxXnuB-1" vertex="1">
          <mxGeometry x="510" y="120" width="80" height="60" as="geometry" />
        </mxCell>
        <mxCell id="EOhwlegY5U9e9SbTwED8-2" value="No Groups, no fine grain permissions required" style="rounded=0;whiteSpace=wrap;html=1;fontSize=11;strokeColor=none;fontStyle=2;verticalAlign=top;" parent="___ZYtuKfzhHM2hxXnuB-1" vertex="1">
          <mxGeometry x="120" y="180" width="80" height="100" as="geometry" />
        </mxCell>
        <mxCell id="EOhwlegY5U9e9SbTwED8-3" value="Simple authorisation, generally all or nothing access&lt;br&gt;Poor partner integration capabilities" style="rounded=0;whiteSpace=wrap;html=1;fontSize=11;strokeColor=none;fontStyle=2;verticalAlign=top;" parent="___ZYtuKfzhHM2hxXnuB-1" vertex="1">
          <mxGeometry x="220" y="180" width="80" height="100" as="geometry" />
        </mxCell>
        <mxCell id="qI99FZC7gmtlGZ67eMqF-0" value="Internal Hierarchical Systems&amp;nbsp; w/ poor partner integration capabilities" style="rounded=0;whiteSpace=wrap;html=1;fontSize=11;strokeColor=none;fontStyle=2;verticalAlign=top;" parent="___ZYtuKfzhHM2hxXnuB-1" vertex="1">
          <mxGeometry x="320" y="180" width="80" height="100" as="geometry" />
        </mxCell>
        <mxCell id="qI99FZC7gmtlGZ67eMqF-1" value="Collaborative functionality provided but with no definitive authority" style="rounded=0;whiteSpace=wrap;html=1;fontSize=11;strokeColor=none;fontStyle=2;verticalAlign=top;" parent="___ZYtuKfzhHM2hxXnuB-1" vertex="1">
          <mxGeometry x="510" y="180" width="80" height="100" as="geometry" />
        </mxCell>
        <mxCell id="qI99FZC7gmtlGZ67eMqF-2" value="Collaborative devolved functionality, the protocols stewarded by&amp;nbsp; a central body (eg. NZ Education Sector)" style="rounded=0;whiteSpace=wrap;html=1;fontSize=11;strokeColor=none;fontStyle=2;verticalAlign=top;" parent="___ZYtuKfzhHM2hxXnuB-1" vertex="1">
          <mxGeometry x="600" y="180" width="80" height="100" as="geometry" />
        </mxCell>
        <mxCell id="VRbrzaOFeChv7vma7igu-0" value="Title" parent="___ZYtuKfzhHM2hxXnuB-0" visible="0" />
        <mxCell id="EOhwlegY5U9e9SbTwED8-0" value="&lt;font style=&quot;font-size: 12px&quot;&gt;Diagram: Base System Logical Module - Common User , Group, Permission &amp;amp; Role Management Options - HL&lt;/font&gt;" style="text;strokeColor=none;fillColor=none;html=1;fontSize=12;fontStyle=2;verticalAlign=middle;align=left;shadow=0;glass=0;comic=0;opacity=30;fontColor=#808080;strokeWidth=1;" parent="VRbrzaOFeChv7vma7igu-0" vertex="1">
          <mxGeometry x="120" y="320" width="560" height="20" as="geometry" />
        </mxCell>
      </root>
    </mxGraphModel>
  </diagram>
</mxfile>
